<svg version="1.1" xmlns="http://www.w3.org/2000/svg" viewBox="0 0 2435.7142857142853 1291.2347850542228" width="2435.7142857142853" height="1291.2347850542228">
  <!-- svg-source:excalidraw -->
  
  <defs>
    <style class="style-fonts">
      @font-face {
        font-family: "Virgil";
        src: url("https://excalidraw.com/Virgil.woff2");
      }
      @font-face {
        font-family: "Cascadia";
        src: url("https://excalidraw.com/Cascadia.woff2");
      }
    </style>
  </defs>
  <rect x="0" y="0" width="2435.7142857142853" height="1291.2347850542228" fill="#ffffff"></rect><g stroke-linecap="round" transform="translate(1872.8571428571427 388.3776421970788) rotate(0 276.4285714285714 225.71428571428623)"><path d="M32 0 M32 0 C217.14 0, 402.28 0, 520.86 0 M32 0 C187.36 0, 342.72 0, 520.86 0 M520.86 0 C542.19 0, 552.86 10.67, 552.86 32 M520.86 0 C542.19 0, 552.86 10.67, 552.86 32 M552.86 32 C552.86 142.59, 552.86 253.17, 552.86 419.43 M552.86 32 C552.86 130.08, 552.86 228.16, 552.86 419.43 M552.86 419.43 C552.86 440.76, 542.19 451.43, 520.86 451.43 M552.86 419.43 C552.86 440.76, 542.19 451.43, 520.86 451.43 M520.86 451.43 C375.18 451.43, 229.51 451.43, 32 451.43 M520.86 451.43 C408.53 451.43, 296.2 451.43, 32 451.43 M32 451.43 C10.67 451.43, 0 440.76, 0 419.43 M32 451.43 C10.67 451.43, 0 440.76, 0 419.43 M0 419.43 C0 285.34, 0 151.25, 0 32 M0 419.43 C0 318.59, 0 217.76, 0 32 M0 32 C0 10.67, 10.67 0, 32 0 M0 32 C0 10.67, 10.67 0, 32 0" stroke="#000000" stroke-width="2" fill="none"></path></g><g transform="translate(1971.428571428571 344.30621362565034) rotate(0 66 18)"><text x="0" y="25" font-family="Virgil, Segoe UI Emoji" font-size="28px" fill="#000000" text-anchor="start" style="white-space: pre;" direction="ltr">myCluster</text></g><g stroke-linecap="round" transform="translate(1972.8571428571427 464.091927911365) rotate(0 194.99999999999977 43.57142857142844)"><path d="M21.79 0 L373.32 0.34 L377.75 1.36 L384.55 5.45 L388.64 12.25 L390 21.79 L389.66 70.46 L386.94 78.63 L384.55 81.7 L377.75 85.78 L368.21 87.14 L16.68 86.8 L12.25 85.78 L5.45 81.7 L1.36 74.89 L0 65.36 L0 21.79 L1.36 12.25 L5.45 5.45 L12.25 1.36 L21.79 0" stroke="none" stroke-width="0" fill="white"></path><path d="M21.79 0 M21.79 0 C101.95 0, 182.12 0, 368.21 0 M21.79 0 C154.98 0, 288.18 0, 368.21 0 M368.21 0 C382.74 0, 390 7.26, 390 21.79 M368.21 0 C382.74 0, 390 7.26, 390 21.79 M390 21.79 C390 36.33, 390 50.87, 390 65.36 M390 21.79 C390 35.81, 390 49.84, 390 65.36 M390 65.36 C390 79.88, 382.74 87.14, 368.21 87.14 M390 65.36 C390 79.88, 382.74 87.14, 368.21 87.14 M368.21 87.14 C293.97 87.14, 219.73 87.14, 21.79 87.14 M368.21 87.14 C281.26 87.14, 194.31 87.14, 21.79 87.14 M21.79 87.14 C7.26 87.14, 0 79.88, 0 65.36 M21.79 87.14 C7.26 87.14, 0 79.88, 0 65.36 M0 65.36 C0 56.13, 0 46.9, 0 21.79 M0 65.36 C0 54.02, 0 42.69, 0 21.79 M0 21.79 C0 7.26, 7.26 0, 21.79 0 M0 21.79 C0 7.26, 7.26 0, 21.79 0" stroke="#000000" stroke-width="1" fill="none"></path></g><g transform="translate(2119.9999999999995 488.734785054221) rotate(0 54 18)"><text x="0" y="25" font-family="Virgil, Segoe UI Emoji" font-size="28px" fill="#000000" text-anchor="start" style="white-space: pre;" direction="ltr">promtail</text></g><g stroke-linecap="round" transform="translate(688.2857142857134 112.66335648279255) rotate(0 541.2857142857143 584.2857142857151)"><path d="M32 0 M32 0 C308.56 0, 585.12 0, 1050.57 0 M32 0 C243.37 0, 454.73 0, 1050.57 0 M1050.57 0 C1071.9 0, 1082.57 10.67, 1082.57 32 M1050.57 0 C1071.9 0, 1082.57 10.67, 1082.57 32 M1082.57 32 C1082.57 265.62, 1082.57 499.23, 1082.57 1136.57 M1082.57 32 C1082.57 455.47, 1082.57 878.95, 1082.57 1136.57 M1082.57 1136.57 C1082.57 1157.9, 1071.9 1168.57, 1050.57 1168.57 M1082.57 1136.57 C1082.57 1157.9, 1071.9 1168.57, 1050.57 1168.57 M1050.57 1168.57 C761.26 1168.57, 471.94 1168.57, 32 1168.57 M1050.57 1168.57 C674.1 1168.57, 297.63 1168.57, 32 1168.57 M32 1168.57 C10.67 1168.57, 0 1157.9, 0 1136.57 M32 1168.57 C10.67 1168.57, 0 1157.9, 0 1136.57 M0 1136.57 C0 836.39, 0 536.22, 0 32 M0 1136.57 C0 770.88, 0 405.2, 0 32 M0 32 C0 10.67, 10.67 0, 32 0 M0 32 C0 10.67, 10.67 0, 32 0" stroke="#000000" stroke-width="2" fill="none"></path></g><g transform="translate(888.6428571428568 64.94907076850814) rotate(0 135 18)"><text x="0" y="25" font-family="Virgil, Segoe UI Emoji" font-size="28px" fill="#000000" text-anchor="start" style="white-space: pre;" direction="ltr">management cluster</text></g><g stroke-linecap="round" transform="translate(1099.8571428571422 660.0919279113632) rotate(0 95.00000000000009 60.71428571428578)"><path d="M0 0 C73.82 0, 147.63 0, 190 0 M0 0 C53.72 0, 107.43 0, 190 0 M190 0 C190 34.23, 190 68.47, 190 121.43 M190 0 C190 47.78, 190 95.57, 190 121.43 M190 121.43 C139.6 121.43, 89.2 121.43, 0 121.43 M190 121.43 C121.38 121.43, 52.75 121.43, 0 121.43 M0 121.43 C0 96.05, 0 70.66, 0 0 M0 121.43 C0 87.2, 0 52.97, 0 0" stroke="#000000" stroke-width="1" fill="none"></path></g><g transform="translate(1132.2857142857138 676.8776421970779) rotate(0 76.5 12.5)"><text x="0" y="20" font-family="Cascadia, Segoe UI Emoji" font-size="20px" fill="#495057" text-anchor="start" style="white-space: pre;" direction="ltr">scrape_config</text></g><g transform="translate(1144.1428571428569 631.0204993399357) rotate(0 45.5 13)"><text x="0" y="18" font-family="Virgil, Segoe UI Emoji" font-size="20px" fill="#000000" text-anchor="start" style="white-space: pre;" direction="ltr">configmap</text></g><g transform="translate(1306.571428571428 425.3776421970779) rotate(0 30 13)"><text x="0" y="18" font-family="Virgil, Segoe UI Emoji" font-size="20px" fill="#000000" text-anchor="start" style="white-space: pre;" direction="ltr">AppCR</text></g><g transform="translate(1210.8571428571422 469.66335648279255) rotate(0 82 37.5)"><text x="0" y="20" font-family="Cascadia, Segoe UI Emoji" font-size="20px" fill="#495057" text-anchor="start" style="white-space: pre;" direction="ltr">name: promtail</text><text x="0" y="45" font-family="Cascadia, Segoe UI Emoji" font-size="20px" fill="#495057" text-anchor="start" style="white-space: pre;" direction="ltr">version: 1.0.0</text><text x="0" y="70" font-family="Cascadia, Segoe UI Emoji" font-size="20px" fill="#495057" text-anchor="start" style="white-space: pre;" direction="ltr">extraConfig: </text></g><g stroke-linecap="round"><g stroke-opacity="0.7" fill-opacity="0.7" transform="translate(1359.4285714285704 534.3776421970788) rotate(0 7.285714285714619 44.25616649344602)"><path d="M0 0 C2.25 3.47, 4.49 6.94, 10.26 15.84 M10.26 15.84 C11.63 29.02, 12.99 42.2, 14.57 57.43 M14.57 57.43 C14.32 65.92, 14.06 74.41, 13.64 88.51" stroke="#1864ab" stroke-width="2.5" fill="none" stroke-dasharray="8 10"></path></g><g stroke-opacity="0.7" fill-opacity="0.7" transform="translate(1359.4285714285704 534.3776421970788) rotate(0 7.285714285714619 44.25616649344602)"><path d="M8.76 73.75 C9.83 76.98, 10.89 80.21, 13.64 88.51" stroke="#1864ab" stroke-width="2.5" fill="none"></path></g><g stroke-opacity="0.7" fill-opacity="0.7" transform="translate(1359.4285714285704 534.3776421970788) rotate(0 7.285714285714619 44.25616649344602)"><path d="M19.39 74.07 C18.13 77.23, 16.87 80.39, 13.64 88.51" stroke="#1864ab" stroke-width="2.5" fill="none"></path></g></g><mask></mask><g stroke-linecap="round" transform="translate(702.8571428571424 387.2347850542219) rotate(0 171.14285714285708 100)"><path d="M32 0 L310.29 0 L317.79 0.5 L324.29 2 L329.79 4.5 L334.29 8 L337.79 12.5 L340.29 18 L341.79 24.5 L342.29 32 L342.29 168 L341.79 175.5 L340.29 182 L337.79 187.5 L334.29 192 L329.79 195.5 L324.29 198 L317.79 199.5 L310.29 200 L32 200 L24.5 199.5 L18 198 L12.5 195.5 L8 192 L4.5 187.5 L2 182 L0.5 175.5 L0 168 L0.5 24.5 L2 18 L4.5 12.5 L8 8 L12.5 4.5 L18 2 L24.5 0.5 L32 0" stroke="none" stroke-width="0" fill="#fab005"></path><path d="M32 0 M32 0 C107.18 0, 182.36 0, 310.29 0 M32 0 C98.17 0, 164.33 0, 310.29 0 M310.29 0 C331.62 0, 342.29 10.67, 342.29 32 M310.29 0 C331.62 0, 342.29 10.67, 342.29 32 M342.29 32 C342.29 84.81, 342.29 137.63, 342.29 168 M342.29 32 C342.29 78.96, 342.29 125.93, 342.29 168 M342.29 168 C342.29 189.33, 331.62 200, 310.29 200 M342.29 168 C342.29 189.33, 331.62 200, 310.29 200 M310.29 200 C252.36 200, 194.43 200, 32 200 M310.29 200 C212.27 200, 114.26 200, 32 200 M32 200 C10.67 200, 0 189.33, 0 168 M32 200 C10.67 200, 0 189.33, 0 168 M0 168 C0 139.89, 0 111.78, 0 32 M0 168 C0 121.36, 0 74.72, 0 32 M0 32 C0 10.67, 10.67 0, 32 0 M0 32 C0 10.67, 10.67 0, 32 0" stroke="#000000" stroke-width="1" fill="none"></path></g><g transform="translate(792.8571428571424 352.9490707685072) rotate(0 77 13)"><text x="0" y="18" font-family="Virgil, Segoe UI Emoji" font-size="20px" fill="#000000" text-anchor="start" style="white-space: pre;" direction="ltr">logging-operator</text></g><g stroke-linecap="round" transform="translate(1079.9999999999995 415.80621362564943) rotate(0 214 409.28571428571513)"><path d="M0 0 C107.26 0, 214.52 0, 428 0 M0 0 C163.46 0, 326.92 0, 428 0 M428 0 C428 264.57, 428 529.13, 428 818.57 M428 0 C428 208.7, 428 417.4, 428 818.57 M428 818.57 C257.19 818.57, 86.38 818.57, 0 818.57 M428 818.57 C260.58 818.57, 93.16 818.57, 0 818.57 M0 818.57 C0 518.59, 0 218.61, 0 0 M0 818.57 C0 579.14, 0 339.72, 0 0" stroke="#000000" stroke-width="1" fill="none"></path></g><g transform="translate(1253.7142857142853 382.9490707685072) rotate(0 53 12.5)"><text x="0" y="20" font-family="Cascadia, Segoe UI Emoji" font-size="20px" fill="#000000" text-anchor="start" style="white-space: pre;" direction="ltr">namespace</text></g><g mask="url(#mask-aiCz0BsUtZKZLSLLWtRFK)" stroke-linecap="round"><g transform="translate(876.3478893994886 600.6036549902547) rotate(0 108.9877070863542 54.329587293411805)"><path d="M0 0 C3.04 16.06, -18.71 78.24, 18.22 96.35 C55.16 114.46, 187.71 106.61, 221.61 108.66 M0 0 C3.04 16.06, -18.71 78.24, 18.22 96.35 C55.16 114.46, 187.71 106.61, 221.61 108.66" stroke="#e67700" stroke-width="1" fill="none"></path></g><g transform="translate(876.3478893994886 600.6036549902547) rotate(0 108.9877070863542 54.329587293411805)"><path d="M193.39 118.84 C202.03 115.73, 210.67 112.61, 221.61 108.66 M193.39 118.84 C199.16 116.76, 204.93 114.68, 221.61 108.66" stroke="#e67700" stroke-width="1" fill="none"></path></g><g transform="translate(876.3478893994886 600.6036549902547) rotate(0 108.9877070863542 54.329587293411805)"><path d="M193.45 98.32 C202.07 101.49, 210.69 104.65, 221.61 108.66 M193.45 98.32 C199.2 100.44, 204.96 102.55, 221.61 108.66" stroke="#e67700" stroke-width="1" fill="none"></path></g></g><mask id="mask-aiCz0BsUtZKZLSLLWtRFK"><rect x="0" y="0" fill="#fff" width="1197.956097560975" height="809.2628295770783"></rect><rect x="859.0714285714282" y="684.4490707685072" fill="#000" width="71" height="25" opacity="1"></rect></mask><g transform="translate(859.0714285714282 684.4490707685072) rotate(0 126.26416791441463 -29.515828484840767)"><text x="35.5" y="20" font-family="Cascadia, Segoe UI Emoji" font-size="20px" fill="#e67700" text-anchor="middle" style="white-space: pre;" direction="ltr">create</text></g><g stroke-linecap="round"><g transform="translate(1613.228682155588 128.3776421970797) rotate(0 -405.4816575783309 45.2397503300308)"><path d="M0 0 C-14.94 -14.33, 25.17 -70.1, -89.66 -86 C-204.48 -101.9, -568.73 -144.57, -688.94 -95.43 C-809.16 -46.29, -790.63 158.14, -810.96 208.86 M0 0 C-14.94 -14.33, 25.17 -70.1, -89.66 -86 C-204.48 -101.9, -568.73 -144.57, -688.94 -95.43 C-809.16 -46.29, -790.63 158.14, -810.96 208.86" stroke="#e67700" stroke-width="1" fill="none"></path></g><g transform="translate(1613.228682155588 128.3776421970797) rotate(0 -405.4816575783309 45.2397503300308)"><path d="M-816.64 179.4 C-814.83 188.82, -813.01 198.24, -810.96 208.86 M-816.64 179.4 C-815.17 187.06, -813.69 194.72, -810.96 208.86" stroke="#e67700" stroke-width="1" fill="none"></path></g><g transform="translate(1613.228682155588 128.3776421970797) rotate(0 -405.4816575783309 45.2397503300308)"><path d="M-796.38 182.64 C-801.04 191.02, -805.71 199.41, -810.96 208.86 M-796.38 182.64 C-800.17 189.46, -803.96 196.27, -810.96 208.86" stroke="#e67700" stroke-width="1" fill="none"></path></g></g><mask></mask><g stroke-linecap="round" transform="translate(1150 897.5919279113659) rotate(0 163.57142857142844 58.57142857142844)"><path d="M0 0 C109.81 0, 219.62 0, 327.14 0 M0 0 C103.25 0, 206.51 0, 327.14 0 M327.14 0 C327.14 43.42, 327.14 86.83, 327.14 117.14 M327.14 0 C327.14 44.66, 327.14 89.33, 327.14 117.14 M327.14 117.14 C211.86 117.14, 96.57 117.14, 0 117.14 M327.14 117.14 C221.78 117.14, 116.42 117.14, 0 117.14 M0 117.14 C0 75.78, 0 34.42, 0 0 M0 117.14 C0 84.02, 0 50.9, 0 0" stroke="#000000" stroke-width="1" fill="none"></path></g><g transform="translate(1291.4285714285706 870.0204993399348) rotate(0 30 13)"><text x="0" y="18" font-family="Virgil, Segoe UI Emoji" font-size="20px" fill="#000000" text-anchor="start" style="white-space: pre;" direction="ltr">AppCR</text></g><g transform="translate(1165.1428571428567 916.3062136256494) rotate(0 152.5 37.5)"><text x="0" y="20" font-family="Cascadia, Segoe UI Emoji" font-size="20px" fill="#495057" text-anchor="start" style="white-space: pre;" direction="ltr">name: observability-bundle</text><text x="0" y="45" font-family="Cascadia, Segoe UI Emoji" font-size="20px" fill="#495057" text-anchor="start" style="white-space: pre;" direction="ltr">version: 1.0.0</text><text x="0" y="70" font-family="Cascadia, Segoe UI Emoji" font-size="20px" fill="#495057" text-anchor="start" style="white-space: pre;" direction="ltr">userConfig: </text></g><g stroke-linecap="round" transform="translate(1166.1428571428564 1103.0562136256503) rotate(0 159.28571428571433 52.85714285714312)"><path d="M0 0 C98.24 0, 196.48 0, 318.57 0 M0 0 C100.55 0, 201.1 0, 318.57 0 M318.57 0 C318.57 28.65, 318.57 57.31, 318.57 105.71 M318.57 0 C318.57 25.84, 318.57 51.68, 318.57 105.71 M318.57 105.71 C198.4 105.71, 78.22 105.71, 0 105.71 M318.57 105.71 C219.8 105.71, 121.03 105.71, 0 105.71 M0 105.71 C0 67.31, 0 28.91, 0 0 M0 105.71 C0 79.06, 0 52.4, 0 0" stroke="#000000" stroke-width="1" fill="none"></path></g><g transform="translate(1212.1428571428564 1116.984785054222) rotate(0 129.5 12.5)"><text x="0" y="20" font-family="Cascadia, Segoe UI Emoji" font-size="20px" fill="#495057" text-anchor="start" style="white-space: pre;" direction="ltr">promtail.enable = true</text></g><g transform="translate(1260.1428571428564 1072.5562136256522) rotate(0 45.5 13)"><text x="0" y="18" font-family="Virgil, Segoe UI Emoji" font-size="20px" fill="#000000" text-anchor="start" style="white-space: pre;" direction="ltr">configmap</text></g><g stroke-linecap="round"><g stroke-opacity="0.7" fill-opacity="0.7" transform="translate(1302.1428571428569 980.2347850542201) rotate(0 12.785714285714334 41.85714285714312)"><path d="M0 0 C7.62 5.03, 15.24 10.06, 21.86 14.43 M21.86 14.43 C23.32 21.96, 24.78 29.5, 25.57 33.57 M25.57 33.57 C24.6 49.49, 23.63 65.4, 22.51 83.71" stroke="#1864ab" stroke-width="2.5" fill="none" stroke-dasharray="8 10"></path></g><g stroke-opacity="0.7" fill-opacity="0.7" transform="translate(1302.1428571428569 980.2347850542201) rotate(0 12.785714285714334 41.85714285714312)"><path d="M15.37 59.63 C17.86 68.03, 20.35 76.43, 22.51 83.71" stroke="#1864ab" stroke-width="2.5" fill="none"></path></g><g stroke-opacity="0.7" fill-opacity="0.7" transform="translate(1302.1428571428569 980.2347850542201) rotate(0 12.785714285714334 41.85714285714312)"><path d="M32.52 60.68 C29.03 68.71, 25.54 76.74, 22.51 83.71" stroke="#1864ab" stroke-width="2.5" fill="none"></path></g></g><mask></mask><g mask="url(#mask-_jFz62_ItBhqYM2GWPEn4)" stroke-linecap="round"><g transform="translate(585.6231527093594 902.224589446445) rotate(0 307.90270935960575 114.25715615386298)"><path d="M0 0 C35.63 3.84, 171.89 -11.28, 213.81 23.01 C255.73 57.3, 184.52 171.5, 251.52 205.72 C318.52 239.95, 555.09 224.59, 615.81 228.36 M0 0 C35.63 3.84, 171.89 -11.28, 213.81 23.01 C255.73 57.3, 184.52 171.5, 251.52 205.72 C318.52 239.95, 555.09 224.59, 615.81 228.36" stroke="#a61e4d" stroke-width="1" fill="none"></path></g><g transform="translate(585.6231527093594 902.224589446445) rotate(0 307.90270935960575 114.25715615386298)"><path d="M587.61 238.6 C598.05 234.81, 608.49 231.02, 615.81 228.36 M587.61 238.6 C596.16 235.49, 604.71 232.39, 615.81 228.36" stroke="#a61e4d" stroke-width="1" fill="none"></path></g><g transform="translate(585.6231527093594 902.224589446445) rotate(0 307.90270935960575 114.25715615386298)"><path d="M587.62 218.08 C598.06 221.89, 608.5 225.7, 615.81 228.36 M587.62 218.08 C596.17 221.2, 604.71 224.31, 615.81 228.36" stroke="#a61e4d" stroke-width="1" fill="none"></path></g></g><mask id="mask-_jFz62_ItBhqYM2GWPEn4"><rect x="0" y="0" fill="#fff" width="1301.4285714285709" height="1230.587821660809"></rect><rect x="790.4457061195146" y="1008.0895396147253" fill="#000" width="36" height="25" opacity="1"></rect></mask><g transform="translate(790.4457061195146 1008.0895396147253) rotate(0 103.08015594945053 8.392205985582677)"><text x="18" y="20" font-family="Cascadia, Segoe UI Emoji" font-size="20px" fill="#a61e4d" text-anchor="middle" style="white-space: pre;" direction="ltr">set</text></g><g transform="translate(749.9523809523803 424.54430886374485) rotate(0 131.5 57)"><text x="0" y="13" font-family="Helvetica, Segoe UI Emoji" font-size="16px" fill="#000000" text-anchor="start" style="white-space: pre;" direction="ltr">- reconcile ClusterCR</text><text x="0" y="32" font-family="Helvetica, Segoe UI Emoji" font-size="16px" fill="#000000" text-anchor="start" style="white-space: pre;" direction="ltr">- wire Promtail scrape_config</text><text x="0" y="51" font-family="Helvetica, Segoe UI Emoji" font-size="16px" fill="#000000" text-anchor="start" style="white-space: pre;" direction="ltr">- generate Loki credentials</text><text x="0" y="70" font-family="Helvetica, Segoe UI Emoji" font-size="16px" fill="#000000" text-anchor="start" style="white-space: pre;" direction="ltr">    configure Loki remote_write</text><text x="0" y="89" font-family="Helvetica, Segoe UI Emoji" font-size="16px" fill="#000000" text-anchor="start" style="white-space: pre;" direction="ltr">    configure Grafana Loki datasource</text><text x="0" y="108" font-family="Helvetica, Segoe UI Emoji" font-size="16px" fill="#000000" text-anchor="start" style="white-space: pre;" direction="ltr">    configure Promtail remote_write</text></g><g mask="url(#mask-saRkkaEP-_0SceczkymZq)" stroke-linecap="round"><g transform="translate(1048.1279317697224 480.60184978936377) rotate(0 79.22174840085287 24.92484799882459)"><path d="M0 0 C11.74 -0.08, 58.23 -8.52, 70.44 -0.51 C82.66 7.5, 58.63 39.07, 73.3 48.06 C87.97 57.06, 144.25 52.57, 158.44 53.47 M0 0 C11.74 -0.08, 58.23 -8.52, 70.44 -0.51 C82.66 7.5, 58.63 39.07, 73.3 48.06 C87.97 57.06, 144.25 52.57, 158.44 53.47" stroke="#e67700" stroke-width="1" fill="none"></path></g><g transform="translate(1048.1279317697224 480.60184978936377) rotate(0 79.22174840085287 24.92484799882459)"><path d="M130.32 63.9 C141.27 59.84, 152.22 55.78, 158.44 53.47 M130.32 63.9 C139.76 60.4, 149.21 56.89, 158.44 53.47" stroke="#e67700" stroke-width="1" fill="none"></path></g><g transform="translate(1048.1279317697224 480.60184978936377) rotate(0 79.22174840085287 24.92484799882459)"><path d="M130.19 43.38 C141.19 47.31, 152.19 51.23, 158.44 53.47 M130.19 43.38 C139.68 46.77, 149.17 50.16, 158.44 53.47" stroke="#e67700" stroke-width="1" fill="none"></path></g></g><mask id="mask-saRkkaEP-_0SceczkymZq"><rect x="0" y="0" fill="#fff" width="1306.5714285714282" height="634.5785160478417"></rect><rect x="1101.8354780981404" y="491.9430918344897" fill="#000" width="34" height="26" opacity="1"></rect></mask><g transform="translate(1101.8354780981404 491.9430918344897) rotate(0 25.51420207243504 13.58360595369868)"><text x="17" y="18" font-family="Virgil, Segoe UI Emoji" font-size="20px" fill="#e67700" text-anchor="middle" style="white-space: pre;" direction="ltr">set</text></g><g stroke-linecap="round" transform="translate(2182.142857142857 582.1990707685081) rotate(0 95.00000000000011 60.71428571428578)"><path d="M0 0 C73.7 0, 147.4 0, 190 0 M0 0 C63.33 0, 126.67 0, 190 0 M190 0 C190 31.52, 190 63.04, 190 121.43 M190 0 C190 45.7, 190 91.41, 190 121.43 M190 121.43 C119.41 121.43, 48.81 121.43, 0 121.43 M190 121.43 C145.41 121.43, 100.82 121.43, 0 121.43 M0 121.43 C0 79.09, 0 36.76, 0 0 M0 121.43 C0 78.15, 0 34.86, 0 0" stroke="#000000" stroke-width="1" fill="none"></path></g><g transform="translate(2203.5714285714284 598.9847850542219) rotate(0 71 12.5)"><text x="0" y="20" font-family="Cascadia, Segoe UI Emoji" font-size="20px" fill="#495057" text-anchor="start" style="white-space: pre;" direction="ltr">remote_write</text></g><g transform="translate(2226.4285714285716 553.1276421970806) rotate(0 32 13)"><text x="0" y="18" font-family="Virgil, Segoe UI Emoji" font-size="20px" fill="#000000" text-anchor="start" style="white-space: pre;" direction="ltr">secret</text></g><g stroke-linecap="round" transform="translate(1977.8571428571422 583.627642197077) rotate(0 95.00000000000011 60.71428571428578)"><path d="M0 0 C59.14 0, 118.28 0, 190 0 M0 0 C46.81 0, 93.61 0, 190 0 M190 0 C190 47.63, 190 95.26, 190 121.43 M190 0 C190 42.1, 190 84.2, 190 121.43 M190 121.43 C127.13 121.43, 64.27 121.43, 0 121.43 M190 121.43 C144.06 121.43, 98.13 121.43, 0 121.43 M0 121.43 C0 76.68, 0 31.92, 0 0 M0 121.43 C0 93.45, 0 65.48, 0 0" stroke="#000000" stroke-width="1" fill="none"></path></g><g transform="translate(1997.8571428571422 600.4133564827907) rotate(0 76.5 12.5)"><text x="0" y="20" font-family="Cascadia, Segoe UI Emoji" font-size="20px" fill="#495057" text-anchor="start" style="white-space: pre;" direction="ltr">scrape_config</text></g><g transform="translate(2022.1428571428564 554.5562136256494) rotate(0 45.5 13)"><text x="0" y="18" font-family="Virgil, Segoe UI Emoji" font-size="20px" fill="#000000" text-anchor="start" style="white-space: pre;" direction="ltr">configmap</text></g><g stroke-linecap="round" transform="translate(1308.7142857142853 661.0562136256476) rotate(0 95.00000000000011 60.71428571428578)"><path d="M0 0 C43.03 0, 86.07 0, 190 0 M0 0 C67.51 0, 135.03 0, 190 0 M190 0 C190 43.72, 190 87.44, 190 121.43 M190 0 C190 27.52, 190 55.03, 190 121.43 M190 121.43 C138.39 121.43, 86.79 121.43, 0 121.43 M190 121.43 C117.4 121.43, 44.8 121.43, 0 121.43 M0 121.43 C0 93.34, 0 65.26, 0 0 M0 121.43 C0 82.57, 0 43.7, 0 0" stroke="#000000" stroke-width="1" fill="none"></path></g><g transform="translate(1331.5714285714284 677.8419279113614) rotate(0 71 12.5)"><text x="0" y="20" font-family="Cascadia, Segoe UI Emoji" font-size="20px" fill="#495057" text-anchor="start" style="white-space: pre;" direction="ltr">remote_write</text></g><g transform="translate(1353 631.9847850542201) rotate(0 32 13)"><text x="0" y="18" font-family="Virgil, Segoe UI Emoji" font-size="20px" fill="#000000" text-anchor="start" style="white-space: pre;" direction="ltr">secret</text></g><g stroke-linecap="round" transform="translate(1525.380952380952 530.3300231494604) rotate(0 107.85714285714289 75.71428571428532)"><path d="M32 0 M32 0 C83.48 0, 134.96 0, 183.71 0 M32 0 C70.41 0, 108.83 0, 183.71 0 M183.71 0 C205.05 0, 215.71 10.67, 215.71 32 M183.71 0 C205.05 0, 215.71 10.67, 215.71 32 M215.71 32 C215.71 55.9, 215.71 79.8, 215.71 119.43 M215.71 32 C215.71 55.43, 215.71 78.86, 215.71 119.43 M215.71 119.43 C215.71 140.76, 205.05 151.43, 183.71 151.43 M215.71 119.43 C215.71 140.76, 205.05 151.43, 183.71 151.43 M183.71 151.43 C127.6 151.43, 71.48 151.43, 32 151.43 M183.71 151.43 C145.9 151.43, 108.08 151.43, 32 151.43 M32 151.43 C10.67 151.43, 0 140.76, 0 119.43 M32 151.43 C10.67 151.43, 0 140.76, 0 119.43 M0 119.43 C0 97.55, 0 75.67, 0 32 M0 119.43 C0 101.55, 0 83.67, 0 32 M0 32 C0 10.67, 10.67 0, 32 0 M0 32 C0 10.67, 10.67 0, 32 0" stroke="#000000" stroke-width="1" fill="none"></path></g><g transform="translate(1538.238095238095 593.0443088637458) rotate(0 95 13)"><text x="95" y="18" font-family="Virgil, Segoe UI Emoji" font-size="20px" fill="#000000" text-anchor="middle" style="white-space: pre;" direction="ltr">app/chart-operator</text></g><g stroke-linecap="round"><g transform="translate(1464.999999999999 477.31435395720837) rotate(0 83.74421627943752 26.079263167554473)"><path d="M0 0 C21.6 1.89, 101.66 2.66, 129.57 11.35 C157.49 20.04, 161.17 45.36, 167.49 52.16 M0 0 C21.6 1.89, 101.66 2.66, 129.57 11.35 C157.49 20.04, 161.17 45.36, 167.49 52.16" stroke="#5c940d" stroke-width="2" fill="none"></path></g><g transform="translate(1464.999999999999 477.31435395720837) rotate(0 83.74421627943752 26.079263167554473)"><path d="M146.38 33.98 C154.54 41.01, 162.69 48.03, 167.49 52.16 M146.38 33.98 C153.6 40.2, 160.81 46.41, 167.49 52.16" stroke="#5c940d" stroke-width="2" fill="none"></path></g><g transform="translate(1464.999999999999 477.31435395720837) rotate(0 83.74421627943752 26.079263167554473)"><path d="M163 24.67 C164.74 35.29, 166.47 45.91, 167.49 52.16 M163 24.67 C164.54 34.07, 166.07 43.46, 167.49 52.16" stroke="#5c940d" stroke-width="2" fill="none"></path></g></g><mask></mask><g stroke-linecap="round"><g transform="translate(1403.7142857142853 785.8062136256503) rotate(0 115.74902633919163 -40.14950750160642)"><path d="M0 0 C24.52 2.38, 108.56 30.91, 147.14 14.29 C185.73 -2.34, 217.44 -80.75, 231.5 -99.76 M0 0 C24.52 2.38, 108.56 30.91, 147.14 14.29 C185.73 -2.34, 217.44 -80.75, 231.5 -99.76" stroke="#5c940d" stroke-width="2" fill="none"></path></g><g transform="translate(1403.7142857142853 785.8062136256503) rotate(0 115.74902633919163 -40.14950750160642)"><path d="M226.38 -70.2 C227.84 -78.66, 229.31 -87.12, 231.5 -99.76 M226.38 -70.2 C227.82 -78.54, 229.27 -86.88, 231.5 -99.76" stroke="#5c940d" stroke-width="2" fill="none"></path></g><g transform="translate(1403.7142857142853 785.8062136256503) rotate(0 115.74902633919163 -40.14950750160642)"><path d="M208.57 -80.41 C215.14 -85.95, 221.7 -91.49, 231.5 -99.76 M208.57 -80.41 C215.04 -85.87, 221.51 -91.33, 231.5 -99.76" stroke="#5c940d" stroke-width="2" fill="none"></path></g></g><mask></mask><g stroke-linecap="round"><g transform="translate(1206.4199204825843 784.3776421970797) rotate(0 232.88174163860984 -24.77341781751602)"><path d="M0 0 C58.6 7.86, 273.95 63.77, 351.58 47.14 C429.21 30.52, 446.73 -75.28, 465.76 -99.76 M0 0 C58.6 7.86, 273.95 63.77, 351.58 47.14 C429.21 30.52, 446.73 -75.28, 465.76 -99.76" stroke="#5c940d" stroke-width="2" fill="none"></path></g><g transform="translate(1206.4199204825843 784.3776421970797) rotate(0 232.88174163860984 -24.77341781751602)"><path d="M463.14 -69.88 C463.98 -79.46, 464.82 -89.04, 465.76 -99.76 M463.14 -69.88 C464.09 -80.75, 465.05 -91.61, 465.76 -99.76" stroke="#5c940d" stroke-width="2" fill="none"></path></g><g transform="translate(1206.4199204825843 784.3776421970797) rotate(0 232.88174163860984 -24.77341781751602)"><path d="M444.54 -78.56 C451.35 -85.36, 458.15 -92.16, 465.76 -99.76 M444.54 -78.56 C452.26 -86.27, 459.98 -93.98, 465.76 -99.76" stroke="#5c940d" stroke-width="2" fill="none"></path></g></g><mask></mask><g stroke-linecap="round"><g transform="translate(1746.8095238095234 606.09676289036) rotate(0 108.73809523809524 -52.2905333762792)"><path d="M0 0 C11.53 -14.95, 32.94 -72.29, 69.19 -89.72 C105.44 -107.15, 192.76 -102.1, 217.48 -104.58 M0 0 C11.53 -14.95, 32.94 -72.29, 69.19 -89.72 C105.44 -107.15, 192.76 -102.1, 217.48 -104.58" stroke="#5c940d" stroke-width="2" fill="none"></path></g><g transform="translate(1746.8095238095234 606.09676289036) rotate(0 108.73809523809524 -52.2905333762792)"><path d="M189.58 -93.54 C200.71 -97.94, 211.85 -102.35, 217.48 -104.58 M189.58 -93.54 C196.75 -96.37, 203.91 -99.21, 217.48 -104.58" stroke="#5c940d" stroke-width="2" fill="none"></path></g><g transform="translate(1746.8095238095234 606.09676289036) rotate(0 108.73809523809524 -52.2905333762792)"><path d="M189.01 -114.05 C200.37 -110.27, 211.73 -106.49, 217.48 -104.58 M189.01 -114.05 C196.32 -111.62, 203.63 -109.19, 217.48 -104.58" stroke="#5c940d" stroke-width="2" fill="none"></path></g></g><mask></mask><g stroke-linecap="round"><g transform="translate(1748.238095238095 642.4117869790525) rotate(0 110.5952380952379 3.293813361663524)"><path d="M0 0 C17.67 0.8, 69.18 3.73, 106.05 4.82 C142.91 5.92, 202 6.29, 221.19 6.59 M0 0 C17.67 0.8, 69.18 3.73, 106.05 4.82 C142.91 5.92, 202 6.29, 221.19 6.59" stroke="#5c940d" stroke-width="2" fill="none"></path></g><g transform="translate(1748.238095238095 642.4117869790525) rotate(0 110.5952380952379 3.293813361663524)"><path d="M192.88 16.52 C199.36 14.25, 205.84 11.98, 221.19 6.59 M192.88 16.52 C202.8 13.04, 212.72 9.56, 221.19 6.59" stroke="#5c940d" stroke-width="2" fill="none"></path></g><g transform="translate(1748.238095238095 642.4117869790525) rotate(0 110.5952380952379 3.293813361663524)"><path d="M193.12 -4 C199.54 -1.57, 205.97 0.85, 221.19 6.59 M193.12 -4 C202.96 -0.29, 212.79 3.42, 221.19 6.59" stroke="#5c940d" stroke-width="2" fill="none"></path></g></g><mask></mask><g stroke-linecap="round"><g transform="translate(1748.238095238095 661.9503504390441) rotate(0 266.060892422483 52.430576430517704)"><path d="M0 0 C22.53 15.69, 58.9 77.88, 135.19 94.14 C211.48 110.4, 391.61 105.31, 457.76 97.54 C523.92 89.78, 519.73 55.9, 532.12 47.57 M0 0 C22.53 15.69, 58.9 77.88, 135.19 94.14 C211.48 110.4, 391.61 105.31, 457.76 97.54 C523.92 89.78, 519.73 55.9, 532.12 47.57" stroke="#5c940d" stroke-width="2" fill="none"></path></g><g transform="translate(1748.238095238095 661.9503504390441) rotate(0 266.060892422483 52.430576430517704)"><path d="M524.48 76.58 C527.53 65.01, 530.58 53.43, 532.12 47.57 M524.48 76.58 C526.65 68.32, 528.83 60.06, 532.12 47.57" stroke="#5c940d" stroke-width="2" fill="none"></path></g><g transform="translate(1748.238095238095 661.9503504390441) rotate(0 266.060892422483 52.430576430517704)"><path d="M507.62 64.88 C517.39 57.97, 527.17 51.07, 532.12 47.57 M507.62 64.88 C514.6 59.95, 521.57 55.02, 532.12 47.57" stroke="#5c940d" stroke-width="2" fill="none"></path></g></g><mask></mask><g stroke-linecap="round" transform="translate(52.5 793.3062136256503) rotate(0 261.4285714285714 105.14285714285734)"><path d="M32 0 L490.86 0 L498.36 0.5 L504.86 2 L510.36 4.5 L514.86 8 L518.36 12.5 L520.86 18 L522.36 24.5 L522.86 178.29 L522.36 185.79 L520.86 192.29 L518.36 197.79 L514.86 202.29 L510.36 205.79 L504.86 208.29 L498.36 209.79 L490.86 210.29 L32 210.29 L24.5 209.79 L18 208.29 L12.5 205.79 L8 202.29 L4.5 197.79 L2 192.29 L0.5 185.79 L0 178.29 L0.5 24.5 L2 18 L4.5 12.5 L8 8 L12.5 4.5 L18 2 L24.5 0.5 L32 0" stroke="none" stroke-width="0" fill="#fab005"></path><path d="M32 0 M32 0 C197.29 0, 362.58 0, 490.86 0 M32 0 C152.88 0, 273.75 0, 490.86 0 M490.86 0 C512.19 0, 522.86 10.67, 522.86 32 M490.86 0 C512.19 0, 522.86 10.67, 522.86 32 M522.86 32 C522.86 76.67, 522.86 121.34, 522.86 178.29 M522.86 32 C522.86 67.11, 522.86 102.23, 522.86 178.29 M522.86 178.29 C522.86 199.62, 512.19 210.29, 490.86 210.29 M522.86 178.29 C522.86 199.62, 512.19 210.29, 490.86 210.29 M490.86 210.29 C371.81 210.29, 252.77 210.29, 32 210.29 M490.86 210.29 C382.17 210.29, 273.48 210.29, 32 210.29 M32 210.29 C10.67 210.29, 0 199.62, 0 178.29 M32 210.29 C10.67 210.29, 0 199.62, 0 178.29 M0 178.29 C0 124.55, 0 70.82, 0 32 M0 178.29 C0 143.72, 0 109.15, 0 32 M0 32 C0 10.67, 10.67 0, 32 0 M0 32 C0 10.67, 10.67 0, 32 0" stroke="#000000" stroke-width="2" fill="none"></path></g><g transform="translate(152.21428571428567 747.3062136256503) rotate(0 120 18)"><text x="0" y="25" font-family="Virgil, Segoe UI Emoji" font-size="28px" fill="#000000" text-anchor="start" style="white-space: pre;" direction="ltr">giantswarm/config</text></g><g transform="translate(136.78571428571422 817.1633564827935) rotate(0 158.5 75)"><text x="0" y="20" font-family="Cascadia, Segoe UI Emoji" font-size="20px" fill="#495057" text-anchor="start" style="white-space: pre;" direction="ltr">installation1</text><text x="0" y="45" font-family="Cascadia, Segoe UI Emoji" font-size="20px" fill="#495057" text-anchor="start" style="white-space: pre;" direction="ltr">  logging</text><text x="0" y="70" font-family="Cascadia, Segoe UI Emoji" font-size="20px" fill="#495057" text-anchor="start" style="white-space: pre;" direction="ltr">    promtail.enable = true</text><text x="0" y="95" font-family="Cascadia, Segoe UI Emoji" font-size="20px" fill="#495057" text-anchor="start" style="white-space: pre;" direction="ltr">installation2</text><text x="0" y="120" font-family="Cascadia, Segoe UI Emoji" font-size="20px" fill="#495057" text-anchor="start" style="white-space: pre;" direction="ltr">  logging</text><text x="0" y="145" font-family="Cascadia, Segoe UI Emoji" font-size="20px" fill="#495057" text-anchor="start" style="white-space: pre;" direction="ltr">    promtail.enable = false</text></g><g stroke-linecap="round" transform="translate(1072.8571428571431 131.52049933993658) rotate(0 62.5 29)"><path d="M14.5 0 M14.5 0 C43.21 0, 71.92 0, 110.5 0 M14.5 0 C36.91 0, 59.32 0, 110.5 0 M110.5 0 C120.17 0, 125 4.83, 125 14.5 M110.5 0 C120.17 0, 125 4.83, 125 14.5 M125 14.5 C125 25.04, 125 35.58, 125 43.5 M125 14.5 C125 25.93, 125 37.36, 125 43.5 M125 43.5 C125 53.17, 120.17 58, 110.5 58 M125 43.5 C125 53.17, 120.17 58, 110.5 58 M110.5 58 C91.26 58, 72.01 58, 14.5 58 M110.5 58 C80.86 58, 51.22 58, 14.5 58 M14.5 58 C4.83 58, 0 53.17, 0 43.5 M14.5 58 C4.83 58, 0 53.17, 0 43.5 M0 43.5 C0 32.71, 0 21.91, 0 14.5 M0 43.5 C0 37.35, 0 31.21, 0 14.5 M0 14.5 C0 4.83, 4.83 0, 14.5 0 M0 14.5 C0 4.83, 4.83 0, 14.5 0" stroke="#000000" stroke-width="1" fill="none"></path></g><g transform="translate(1116.3571428571431 147.52049933993658) rotate(0 19 13)"><text x="19" y="18" font-family="Virgil, Segoe UI Emoji" font-size="20px" fill="#000000" text-anchor="middle" style="white-space: pre;" direction="ltr">Loki</text></g><g stroke-linecap="round" transform="translate(1035 221.05621362565125) rotate(0 95.00000000000009 60.71428571428578)"><path d="M0 0 C46.25 0, 92.5 0, 190 0 M0 0 C72.61 0, 145.21 0, 190 0 M190 0 C190 43.75, 190 87.49, 190 121.43 M190 0 C190 33.5, 190 66.99, 190 121.43 M190 121.43 C125.83 121.43, 61.66 121.43, 0 121.43 M190 121.43 C121.24 121.43, 52.47 121.43, 0 121.43 M0 121.43 C0 85.71, 0 49.99, 0 0 M0 121.43 C0 90.35, 0 59.26, 0 0" stroke="#000000" stroke-width="1" fill="none"></path></g><g transform="translate(1084.9999999999998 237.4847850542228) rotate(0 57 10)"><text x="0" y="16" font-family="Cascadia, Segoe UI Emoji" font-size="16px" fill="#495057" text-anchor="start" style="white-space: pre;" direction="ltr">remote_write</text></g><g transform="translate(1107.8571428571433 190.55621362565216) rotate(0 32 13)"><text x="0" y="18" font-family="Virgil, Segoe UI Emoji" font-size="20px" fill="#000000" text-anchor="start" style="white-space: pre;" direction="ltr">secret</text></g><g mask="url(#mask-2Q8_f-a5RbpXDW9rwBFjE)" stroke-linecap="round"><g transform="translate(953.7614016202414 380.11472484539445) rotate(0 58.11929918987922 -68.93097204723244)"><path d="M0 0 C6.04 -20.48, 16.87 -99.99, 36.24 -122.88 C55.61 -145.77, 102.91 -134.94, 116.24 -137.35 M0 0 C6.04 -20.48, 16.87 -99.99, 36.24 -122.88 C55.61 -145.77, 102.91 -134.94, 116.24 -137.35" stroke="#e67700" stroke-width="1" fill="none"></path></g><g transform="translate(953.7614016202414 380.11472484539445) rotate(0 58.11929918987922 -68.93097204723244)"><path d="M87.98 -127.29 C99.18 -131.28, 110.38 -135.27, 116.24 -137.35 M87.98 -127.29 C98.76 -131.13, 109.55 -134.97, 116.24 -137.35" stroke="#e67700" stroke-width="1" fill="none"></path></g><g transform="translate(953.7614016202414 380.11472484539445) rotate(0 58.11929918987922 -68.93097204723244)"><path d="M88.12 -147.81 C99.27 -143.67, 110.41 -139.52, 116.24 -137.35 M88.12 -147.81 C98.85 -143.82, 109.58 -139.83, 116.24 -137.35" stroke="#e67700" stroke-width="1" fill="none"></path></g></g><mask id="mask-2Q8_f-a5RbpXDW9rwBFjE"><rect x="0" y="0" fill="#fff" width="1169.9999999999998" height="617.4674387173609"></rect><rect x="972.9999999999999" y="244.2347850542219" fill="#000" width="34" height="26" opacity="1"></rect></mask><g transform="translate(972.9999999999998 244.2347850542219) rotate(0 38.88070081012068 66.9489677439401)"><text x="17" y="18" font-family="Virgil, Segoe UI Emoji" font-size="20px" fill="#e67700" text-anchor="middle" style="white-space: pre;" direction="ltr">set</text></g><g stroke-linecap="round" transform="translate(1327.1428571428569 131.7526421970797) rotate(0 62.5 29)"><path d="M14.5 0 M14.5 0 C42.37 0, 70.23 0, 110.5 0 M14.5 0 C40.87 0, 67.24 0, 110.5 0 M110.5 0 C120.17 0, 125 4.83, 125 14.5 M110.5 0 C120.17 0, 125 4.83, 125 14.5 M125 14.5 C125 24.24, 125 33.98, 125 43.5 M125 14.5 C125 20.71, 125 26.92, 125 43.5 M125 43.5 C125 53.17, 120.17 58, 110.5 58 M125 43.5 C125 53.17, 120.17 58, 110.5 58 M110.5 58 C75.77 58, 41.04 58, 14.5 58 M110.5 58 C76.75 58, 43.01 58, 14.5 58 M14.5 58 C4.83 58, 0 53.17, 0 43.5 M14.5 58 C4.83 58, 0 53.17, 0 43.5 M0 43.5 C0 36.36, 0 29.23, 0 14.5 M0 43.5 C0 32.53, 0 21.55, 0 14.5 M0 14.5 C0 4.83, 4.83 0, 14.5 0 M0 14.5 C0 4.83, 4.83 0, 14.5 0" stroke="#000000" stroke-width="1" fill="none"></path></g><g transform="translate(1347.6428571428569 148.0026421970797) rotate(0 42 13)"><text x="42" y="18" font-family="Virgil, Segoe UI Emoji" font-size="20px" fill="#000000" text-anchor="middle" style="white-space: pre;" direction="ltr">Grafana</text></g><g stroke-linecap="round" transform="translate(1286.428571428571 221.28835648279346) rotate(0 95.00000000000011 60.71428571428578)"><path d="M0 0 C42.95 0, 85.9 0, 190 0 M0 0 C48.86 0, 97.72 0, 190 0 M190 0 C190 32.2, 190 64.41, 190 121.43 M190 0 C190 24.79, 190 49.58, 190 121.43 M190 121.43 C133.47 121.43, 76.94 121.43, 0 121.43 M190 121.43 C116.05 121.43, 42.1 121.43, 0 121.43 M0 121.43 C0 84.14, 0 46.85, 0 0 M0 121.43 C0 91.48, 0 61.54, 0 0" stroke="#000000" stroke-width="1" fill="none"></path></g><g transform="translate(1332.1428571428569 236.28835648279346) rotate(0 52 10)"><text x="0" y="16" font-family="Cascadia, Segoe UI Emoji" font-size="16px" fill="#495057" text-anchor="start" style="white-space: pre;" direction="ltr">remote_read</text></g><g transform="translate(1359.2857142857147 190.78835648279528) rotate(0 32 13)"><text x="0" y="18" font-family="Virgil, Segoe UI Emoji" font-size="20px" fill="#000000" text-anchor="start" style="white-space: pre;" direction="ltr">secret</text></g><g mask="url(#mask-im-foGCvEbK0oFIQ24JMA)" stroke-linecap="round"><g transform="translate(1046.6645962732914 398.8536499692955) rotate(0 139.52484472049707 -76.25168432958071)"><path d="M0 0 C31.03 -3.13, 149.68 4.6, 186.19 -18.76 C222.7 -42.13, 203.57 -118.41, 219.05 -140.19 C234.53 -161.97, 269.05 -147.9, 279.05 -149.44 M0 0 C31.03 -3.13, 149.68 4.6, 186.19 -18.76 C222.7 -42.13, 203.57 -118.41, 219.05 -140.19 C234.53 -161.97, 269.05 -147.9, 279.05 -149.44" stroke="#e67700" stroke-width="1" fill="none"></path></g><g transform="translate(1046.6645962732914 398.8536499692955) rotate(0 139.52484472049707 -76.25168432958071)"><path d="M249.98 -142.02 C261.41 -144.94, 272.83 -147.85, 279.05 -149.44 M249.98 -142.02 C258.99 -144.32, 268 -146.62, 279.05 -149.44" stroke="#e67700" stroke-width="1" fill="none"></path></g><g transform="translate(1046.6645962732914 398.8536499692955) rotate(0 139.52484472049707 -76.25168432958071)"><path d="M252.01 -162.44 C262.64 -157.33, 273.26 -152.22, 279.05 -149.44 M252.01 -162.44 C260.4 -158.41, 268.78 -154.38, 279.05 -149.44" stroke="#e67700" stroke-width="1" fill="none"></path></g></g><mask id="mask-im-foGCvEbK0oFIQ24JMA"><rect x="0" y="0" fill="#fff" width="1425.7142857142856" height="648.294092065541"></rect><rect x="1240.0249749722452" y="307.822057159673" fill="#000" width="34" height="26" opacity="1"></rect></mask><g transform="translate(1240.0249749722454 307.822057159673) rotate(0 -53.83553397845668 14.77990848004174)"><text x="17" y="18" font-family="Virgil, Segoe UI Emoji" font-size="20px" fill="#e67700" text-anchor="middle" style="white-space: pre;" direction="ltr">set</text></g><g stroke-linecap="round"><g stroke-opacity="0.7" fill-opacity="0.7" transform="translate(1371.5933232169953 575.0472117834124) rotate(0 -69.61832476183767 22.236643778262078)"><path d="M0 0 C-11 0.67, -46.04 1.47, -66 4 C-85.96 6.53, -107.57 8.44, -119.78 15.18 C-131.98 21.93, -135.99 39.59, -139.24 44.47" stroke="#1864ab" stroke-width="2.5" fill="none" stroke-dasharray="8 10"></path></g><g stroke-opacity="0.7" fill-opacity="0.7" transform="translate(1371.5933232169953 575.0472117834124) rotate(0 -69.61832476183767 22.236643778262078)"><path d="M-137.77 26.95 C-138.32 33.48, -138.86 40.01, -139.24 44.47" stroke="#1864ab" stroke-width="2.5" fill="none"></path></g><g stroke-opacity="0.7" fill-opacity="0.7" transform="translate(1371.5933232169953 575.0472117834124) rotate(0 -69.61832476183767 22.236643778262078)"><path d="M-126.85 31.99 C-131.47 36.64, -136.08 41.3, -139.24 44.47" stroke="#1864ab" stroke-width="2.5" fill="none"></path></g></g><mask></mask><g stroke-linecap="round" transform="translate(1153.428571428571 450.9490707685072) rotate(0 150.71428571428567 56.42857142857156)"><path d="M0 0 C89.69 0, 179.37 0, 301.43 0 M0 0 C97.16 0, 194.32 0, 301.43 0 M301.43 0 C301.43 40.85, 301.43 81.69, 301.43 112.86 M301.43 0 C301.43 24.24, 301.43 48.48, 301.43 112.86 M301.43 112.86 C196.66 112.86, 91.88 112.86, 0 112.86 M301.43 112.86 C198.25 112.86, 95.07 112.86, 0 112.86 M0 112.86 C0 77.27, 0 41.68, 0 0 M0 112.86 C0 85.54, 0 58.22, 0 0" stroke="#000000" stroke-width="1" fill="none"></path></g><g stroke-linecap="round"><g transform="translate(1888.8095238095234 898.4945253139622) rotate(0 28 1)"><path d="M0 0 C18.24 0.65, 36.47 1.3, 56 2 M0 0 C17.16 0.61, 34.31 1.23, 56 2" stroke="#e67700" stroke-width="2" fill="none"></path></g><g transform="translate(1888.8095238095234 898.4945253139622) rotate(0 28 1)"><path d="M29.35 10.64 C38.03 7.82, 46.71 5.01, 56 2 M29.35 10.64 C37.51 7.99, 45.68 5.34, 56 2" stroke="#e67700" stroke-width="2" fill="none"></path></g><g transform="translate(1888.8095238095234 898.4945253139622) rotate(0 28 1)"><path d="M30.03 -8.52 C38.49 -5.09, 46.94 -1.67, 56 2 M30.03 -8.52 C37.99 -5.29, 45.94 -2.07, 56 2" stroke="#e67700" stroke-width="2" fill="none"></path></g></g><mask></mask><g stroke-linecap="round"><g transform="translate(1888.8095238095234 951.4945253139622) rotate(0 28 1)"><path d="M0 0 C18.33 0.65, 36.66 1.31, 56 2 M0 0 C13.46 0.48, 26.91 0.96, 56 2" stroke="#5c940d" stroke-width="2" fill="none"></path></g><g transform="translate(1888.8095238095234 951.4945253139622) rotate(0 28 1)"><path d="M29.35 10.64 C38.07 7.81, 46.8 4.98, 56 2 M29.35 10.64 C35.75 8.56, 42.16 6.49, 56 2" stroke="#5c940d" stroke-width="2" fill="none"></path></g><g transform="translate(1888.8095238095234 951.4945253139622) rotate(0 28 1)"><path d="M30.03 -8.52 C38.53 -5.07, 47.03 -1.63, 56 2 M30.03 -8.52 C36.27 -5.99, 42.51 -3.46, 56 2" stroke="#5c940d" stroke-width="2" fill="none"></path></g></g><mask></mask><g stroke-linecap="round"><g transform="translate(1886.8095238095234 1001.4945253139622) rotate(0 28 1)"><path d="M0 0 C19.36 0.69, 38.72 1.38, 56 2 M0 0 C16.16 0.58, 32.31 1.15, 56 2" stroke="#a61e4d" stroke-width="2" fill="none"></path></g><g transform="translate(1886.8095238095234 1001.4945253139622) rotate(0 28 1)"><path d="M29.35 10.64 C38.56 7.65, 47.78 4.66, 56 2 M29.35 10.64 C37.04 8.15, 44.73 5.65, 56 2" stroke="#a61e4d" stroke-width="2" fill="none"></path></g><g transform="translate(1886.8095238095234 1001.4945253139622) rotate(0 28 1)"><path d="M30.03 -8.52 C39.01 -4.88, 47.99 -1.24, 56 2 M30.03 -8.52 C37.52 -5.48, 45.02 -2.45, 56 2" stroke="#a61e4d" stroke-width="2" fill="none"></path></g></g><mask></mask><g transform="translate(1964.8095238095234 883.4945253139622) rotate(0 174 18)"><text x="0" y="25" font-family="Virgil, Segoe UI Emoji" font-size="28px" fill="#000000" text-anchor="start" style="white-space: pre;" direction="ltr">configuration management</text></g><g transform="translate(1963.8095238095234 936.4945253139622) rotate(0 117 18)"><text x="0" y="25" font-family="Virgil, Segoe UI Emoji" font-size="28px" fill="#000000" text-anchor="start" style="white-space: pre;" direction="ltr">config deployment</text></g><g transform="translate(1959.8095238095234 984.4945253139622) rotate(0 75.5 18)"><text x="0" y="25" font-family="Virgil, Segoe UI Emoji" font-size="28px" fill="#000000" text-anchor="start" style="white-space: pre;" direction="ltr">toggle flag</text></g><g stroke-linecap="round"><g stroke-opacity="0.8" fill-opacity="0.8" transform="translate(1884.8095238095234 1061.4945253139622) rotate(0 31 1.0591713305648227)"><path d="M0 0 C14.99 0.51, 29.98 1.02, 62 2.12" stroke="#1864ab" stroke-width="2.5" fill="none" stroke-dasharray="8 10"></path></g><g stroke-opacity="0.8" fill-opacity="0.8" transform="translate(1884.8095238095234 1061.4945253139622) rotate(0 31 1.0591713305648227)"><path d="M33.48 11.41 C40.37 9.16, 47.27 6.92, 62 2.12" stroke="#1864ab" stroke-width="2.5" fill="none"></path></g><g stroke-opacity="0.8" fill-opacity="0.8" transform="translate(1884.8095238095234 1061.4945253139622) rotate(0 31 1.0591713305648227)"><path d="M34.18 -9.1 C40.9 -6.39, 47.63 -3.67, 62 2.12" stroke="#1864ab" stroke-width="2.5" fill="none"></path></g></g><mask></mask><g transform="translate(1960.8095238095234 1038.4945253139622) rotate(0 136 18)"><text x="0" y="25" font-family="Virgil, Segoe UI Emoji" font-size="28px" fill="#000000" text-anchor="start" style="white-space: pre;" direction="ltr">resource references</text></g><g stroke-linecap="round" transform="translate(1509.8571428571427 170.49452531396128) rotate(0 110.78571428571422 50.57142857142844)"><path d="M0 0 C87.19 0, 174.37 0, 221.57 0 M0 0 C69.18 0, 138.36 0, 221.57 0 M221.57 0 C221.57 21.14, 221.57 42.28, 221.57 101.14 M221.57 0 C221.57 30, 221.57 60.01, 221.57 101.14 M221.57 101.14 C173.68 101.14, 125.79 101.14, 0 101.14 M221.57 101.14 C162.73 101.14, 103.9 101.14, 0 101.14 M0 101.14 C0 64.18, 0 27.22, 0 0 M0 101.14 C0 73.4, 0 45.65, 0 0" stroke="#000000" stroke-width="1" fill="none"></path></g><g transform="translate(1566.1428571428569 140.8516681711044) rotate(0 49.5 13)"><text x="0" y="18" font-family="Virgil, Segoe UI Emoji" font-size="20px" fill="#000000" text-anchor="start" style="white-space: pre;" direction="ltr">ClusterCR</text></g><g transform="translate(1533.428571428571 193.2088110282466) rotate(0 88 25)"><text x="0" y="20" font-family="Cascadia, Segoe UI Emoji" font-size="20px" fill="#495057" text-anchor="start" style="white-space: pre;" direction="ltr">name: myCluster</text><text x="0" y="45" font-family="Cascadia, Segoe UI Emoji" font-size="20px" fill="#495057" text-anchor="start" style="white-space: pre;" direction="ltr">version: 1.2.3</text></g><g stroke-linecap="round" transform="translate(1888.8095238095234 1097.3516681711044) rotate(0 29 17)"><path d="M0 0 C21.08 0, 42.15 0, 58 0 M0 0 C13.98 0, 27.96 0, 58 0 M58 0 C58 8.49, 58 16.99, 58 34 M58 0 C58 8.46, 58 16.92, 58 34 M58 34 C45.35 34, 32.71 34, 0 34 M58 34 C42.77 34, 27.54 34, 0 34 M0 34 C0 21.85, 0 9.69, 0 0 M0 34 C0 24.69, 0 15.38, 0 0" stroke="#000000" stroke-width="1" fill="none"></path></g><g transform="translate(1970.8095238095234 1097.3516681711053) rotate(0 98 18)"><text x="0" y="25" font-family="Virgil, Segoe UI Emoji" font-size="28px" fill="#000000" text-anchor="start" style="white-space: pre;" direction="ltr">k8s resources</text></g><g stroke-linecap="round" transform="translate(1889.8095238095234 1153.3516681711044) rotate(0 29 17)"><path d="M8.5 0 M8.5 0 C18.31 0, 28.13 0, 49.5 0 M8.5 0 C16.96 0, 25.41 0, 49.5 0 M49.5 0 C55.17 0, 58 2.83, 58 8.5 M49.5 0 C55.17 0, 58 2.83, 58 8.5 M58 8.5 C58 13.57, 58 18.64, 58 25.5 M58 8.5 C58 13.03, 58 17.56, 58 25.5 M58 25.5 C58 31.17, 55.17 34, 49.5 34 M58 25.5 C58 31.17, 55.17 34, 49.5 34 M49.5 34 C39.78 34, 30.06 34, 8.5 34 M49.5 34 C35.3 34, 21.1 34, 8.5 34 M8.5 34 C2.83 34, 0 31.17, 0 25.5 M8.5 34 C2.83 34, 0 31.17, 0 25.5 M0 25.5 C0 20.51, 0 15.51, 0 8.5 M0 25.5 C0 21.28, 0 17.06, 0 8.5 M0 8.5 C0 2.83, 2.83 0, 8.5 0 M0 8.5 C0 2.83, 2.83 0, 8.5 0" stroke="#000000" stroke-width="1" fill="none"></path></g><g transform="translate(1969.8095238095234 1147.3516681711044) rotate(0 119.5 18)"><text x="0" y="25" font-family="Virgil, Segoe UI Emoji" font-size="28px" fill="#000000" text-anchor="start" style="white-space: pre;" direction="ltr">abstract objects</text></g><g stroke-linecap="round" transform="translate(183.9285714285711 394.5659538853888) rotate(0 164.4285714285714 55.80952380952385)"><path d="M27.9 0 L300.95 0 L313.16 1.74 L317.96 3.92 L321.88 6.98 L324.93 10.9 L327.11 15.7 L328.42 21.36 L328.86 83.71 L327.11 95.92 L324.93 100.72 L321.88 104.64 L317.96 107.69 L313.16 109.88 L307.49 111.18 L300.95 111.62 L27.9 111.62 L15.7 109.88 L10.9 107.69 L6.98 104.64 L3.92 100.72 L1.74 95.92 L0.44 90.25 L0.44 21.36 L1.74 15.7 L3.92 10.9 L6.98 6.98 L10.9 3.92 L15.7 1.74 L27.9 0" stroke="none" stroke-width="0" fill="#fab005"></path><path d="M27.9 0 M27.9 0 C125.25 0, 222.6 0, 300.95 0 M27.9 0 C118.21 0, 208.51 0, 300.95 0 M300.95 0 C319.56 0, 328.86 9.3, 328.86 27.9 M300.95 0 C319.56 0, 328.86 9.3, 328.86 27.9 M328.86 27.9 C328.86 48.2, 328.86 68.49, 328.86 83.71 M328.86 27.9 C328.86 43.79, 328.86 59.68, 328.86 83.71 M328.86 83.71 C328.86 102.32, 319.56 111.62, 300.95 111.62 M328.86 83.71 C328.86 102.32, 319.56 111.62, 300.95 111.62 M300.95 111.62 C244.91 111.62, 188.87 111.62, 27.9 111.62 M300.95 111.62 C239.92 111.62, 178.89 111.62, 27.9 111.62 M27.9 111.62 C9.3 111.62, 0 102.32, 0 83.71 M27.9 111.62 C9.3 111.62, 0 102.32, 0 83.71 M0 83.71 C0 67.62, 0 51.52, 0 27.9 M0 83.71 C0 70.04, 0 56.37, 0 27.9 M0 27.9 C0 9.3, 9.3 0, 27.9 0 M0 27.9 C0 9.3, 9.3 0, 27.9 0" stroke="#000000" stroke-width="2" fill="none"></path></g><g transform="translate(163.64285714285688 339.4230967425319) rotate(0 189 18)"><text x="0" y="25" font-family="Virgil, Segoe UI Emoji" font-size="28px" fill="#000000" text-anchor="start" style="white-space: pre;" direction="ltr">giantswarm/logging-operator</text></g><g transform="translate(268.2142857142853 418.4230967425319) rotate(0 88 37.5)"><text x="0" y="20" font-family="Cascadia, Segoe UI Emoji" font-size="20px" fill="#495057" text-anchor="start" style="white-space: pre;" direction="ltr">Promtail</text><text x="0" y="45" font-family="Cascadia, Segoe UI Emoji" font-size="20px" fill="#495057" text-anchor="start" style="white-space: pre;" direction="ltr">  scrape_config</text><text x="0" y="70" font-family="Cascadia, Segoe UI Emoji" font-size="20px" fill="#495057" text-anchor="start" style="white-space: pre;" direction="ltr"></text></g><g stroke-linecap="round" transform="translate(10 290.9945253139613) rotate(0 297.24999999999994 403)"><path d="M32 0 M32 0 C203.75 0, 375.5 0, 562.5 0 M32 0 C193.88 0, 355.75 0, 562.5 0 M562.5 0 C583.83 0, 594.5 10.67, 594.5 32 M562.5 0 C583.83 0, 594.5 10.67, 594.5 32 M594.5 32 C594.5 219.06, 594.5 406.11, 594.5 774 M594.5 32 C594.5 287.6, 594.5 543.2, 594.5 774 M594.5 774 C594.5 795.33, 583.83 806, 562.5 806 M594.5 774 C594.5 795.33, 583.83 806, 562.5 806 M562.5 806 C440.03 806, 317.57 806, 32 806 M562.5 806 C358.07 806, 153.65 806, 32 806 M32 806 C10.67 806, 0 795.33, 0 774 M32 806 C10.67 806, 0 795.33, 0 774 M0 774 C0 576.33, 0 378.66, 0 32 M0 774 C0 616.6, 0 459.19, 0 32 M0 32 C0 10.67, 10.67 0, 32 0 M0 32 C0 10.67, 10.67 0, 32 0" stroke="#000000" stroke-width="2" fill="none"></path></g><g transform="translate(267.9999999999999 240.99452531396128) rotate(0 44.5 18)"><text x="0" y="25" font-family="Virgil, Segoe UI Emoji" font-size="28px" fill="#000000" text-anchor="start" style="white-space: pre;" direction="ltr">Github</text></g><g stroke-linecap="round" transform="translate(1891.9999999999995 1207.8278586472952) rotate(0 29 17)"><path d="M8.5 0 L49.5 0 L53.22 0.53 L55.88 2.13 L57.47 4.78 L58 8.5 L58 25.5 L57.47 29.22 L55.88 31.88 L53.22 33.47 L49.5 34 L8.5 34 L4.78 33.47 L2.12 31.88 L0.53 29.22 L0 25.5 L0.53 4.78 L2.13 2.12 L4.78 0.53 L8.5 0" stroke="none" stroke-width="0" fill="#fab005"></path><path d="M8.5 0 M8.5 0 C23.43 0, 38.35 0, 49.5 0 M8.5 0 C23.21 0, 37.92 0, 49.5 0 M49.5 0 C55.17 0, 58 2.83, 58 8.5 M49.5 0 C55.17 0, 58 2.83, 58 8.5 M58 8.5 C58 13.53, 58 18.56, 58 25.5 M58 8.5 C58 14.41, 58 20.33, 58 25.5 M58 25.5 C58 31.17, 55.17 34, 49.5 34 M58 25.5 C58 31.17, 55.17 34, 49.5 34 M49.5 34 C40.28 34, 31.07 34, 8.5 34 M49.5 34 C39.76 34, 30.03 34, 8.5 34 M8.5 34 C2.83 34, 0 31.17, 0 25.5 M8.5 34 C2.83 34, 0 31.17, 0 25.5 M0 25.5 C0 18.72, 0 11.95, 0 8.5 M0 25.5 C0 21.85, 0 18.2, 0 8.5 M0 8.5 C0 2.83, 2.83 0, 8.5 0 M0 8.5 C0 2.83, 2.83 0, 8.5 0" stroke="#000000" stroke-width="1" fill="none"></path></g><g transform="translate(1971.9999999999995 1201.8278586472952) rotate(0 110 18)"><text x="0" y="25" font-family="Virgil, Segoe UI Emoji" font-size="28px" fill="#000000" text-anchor="start" style="white-space: pre;" direction="ltr">source of truth</text></g><g mask="url(#mask-qOfL2alaVQBLNmOD_zPY_)" stroke-linecap="round"><g transform="translate(797.1362372686472 601.0003888534065) rotate(0 251.02556364842349 82.97447643175656)"><path d="M0 0 C8.04 25.72, -36.21 128.53, 48.22 154.35 C132.66 180.16, 430.21 154.82, 506.61 154.92 M0 0 C8.04 25.72, -36.21 128.53, 48.22 154.35 C132.66 180.16, 430.21 154.82, 506.61 154.92" stroke="#e67700" stroke-width="1" fill="none"></path></g><g transform="translate(797.1362372686472 601.0003888534065) rotate(0 251.02556364842349 82.97447643175656)"><path d="M478.85 166.31 C484.42 164.02, 489.98 161.74, 506.61 154.92 M478.85 166.31 C488.18 162.48, 497.51 158.65, 506.61 154.92" stroke="#e67700" stroke-width="1" fill="none"></path></g><g transform="translate(797.1362372686472 601.0003888534065) rotate(0 251.02556364842349 82.97447643175656)"><path d="M478.03 145.8 C483.76 147.63, 489.49 149.46, 506.61 154.92 M478.03 145.8 C487.63 148.87, 497.24 151.93, 506.61 154.92" stroke="#e67700" stroke-width="1" fill="none"></path></g></g><mask id="mask-qOfL2alaVQBLNmOD_zPY_"><rect x="0" y="0" fill="#fff" width="1403.7444454301335" height="855.9165023611904"></rect><rect x="809.8597764405868" y="742.8458046316591" fill="#000" width="71" height="25" opacity="1"></rect></mask><g transform="translate(809.8597764405865 742.8458046316591) rotate(0 238.30202447648395 -58.870939346496016)"><text x="35.5" y="20" font-family="Cascadia, Segoe UI Emoji" font-size="20px" fill="#e67700" text-anchor="middle" style="white-space: pre;" direction="ltr">create</text></g></svg>